<svg xmlns="http://www.w3.org/2000/svg" xmlns:svg="http://www.w3.org/2000/svg" id="svg38" width="72" height="72" version="1.1" viewBox="0 0 72 72"><title id="title2">deezer</title><g style="fill:none;fill-rule:evenodd;stroke:none;stroke-width:1" id="providers-list" transform="matrix(1.3535097,0,0,1.3535097,-12.57814,-13.274521)"><g id="deezer"><g id="Group" transform="translate(10,22)"><path style="fill:#e20613" id="Fill-2" d="M 0,28.81 H 9.42 V 25.947 H 0 Z"/><path style="fill:#e20613" id="Fill-3" d="M 0,24.994 H 9.42 V 22.132 H 0 Z"/><path style="fill:#e20613" id="Fill-4" d="M 0,21.433 H 9.42 V 18.57 H 0 Z"/><path style="fill:#f2987a" id="Fill-5" d="M 0,17.616 H 9.42 V 14.754 H 0 Z"/><path style="fill:#f2987a" id="Fill-6" d="M 0,14.055 H 9.42 V 11.193 H 0 Z"/><path style="fill:#ffec00" id="Fill-7" d="m 10.654,28.81 h 9.42 v -2.863 h -9.42 z"/><path style="fill:#ffec00" id="Fill-8" d="m 10.654,24.994 h 9.42 v -2.862 h -9.42 z"/><path style="fill:#ffec00" id="Fill-9" d="m 10.654,21.433 h 9.42 V 18.57 h -9.42 z"/><path style="fill:#e5007e" id="Fill-10" d="m 21.307,28.81 h 9.42 v -2.863 h -9.42 z"/><path style="fill:#e5007e" id="Fill-11" d="m 21.307,24.994 h 9.42 v -2.862 h -9.42 z"/><path style="fill:#e5007e" id="Fill-12" d="m 21.307,21.433 h 9.42 V 18.57 h -9.42 z"/><path style="fill:#f19dc3" id="Fill-13" d="m 21.307,17.616 h 9.42 v -2.862 h -9.42 z"/><path style="fill:#f19dc3" id="Fill-14" d="m 21.307,14.055 h 9.42 v -2.862 h -9.42 z"/><path style="fill:#f19dc3" id="Fill-15" d="m 21.307,10.24 h 9.42 V 7.377 h -9.42 z"/><path style="fill:#f19dc3" id="Fill-16" d="m 21.307,6.424 h 9.42 V 3.56 h -9.42 z"/><path style="fill:#c7d300" id="Fill-17" d="m 31.707,28.81 h 9.42 v -2.863 h -9.42 z"/><path style="fill:#c7d300" id="Fill-18" d="m 31.707,24.994 h 9.42 v -2.862 h -9.42 z"/><path style="fill:#c7d300" id="Fill-19" d="m 31.707,21.433 h 9.42 V 18.57 h -9.42 z"/><path style="fill:#e4e89a" id="Fill-20" d="m 31.707,17.616 h 9.42 v -2.862 h -9.42 z"/><path style="fill:#e4e89a" id="Fill-21" d="m 31.707,14.055 h 9.42 v -2.862 h -9.42 z"/><path style="fill:#40bfef" id="Fill-22" d="m 42.361,28.81 h 9.42 v -2.863 h -9.42 z"/><path style="fill:#40bfef" id="Fill-23" d="m 42.361,24.994 h 9.42 v -2.862 h -9.42 z"/><path style="fill:#40bfef" id="Fill-24" d="m 42.361,21.433 h 9.42 V 18.57 h -9.42 z"/><path style="fill:#bce3f9" id="Fill-25" d="m 42.361,17.617 h 9.42 v -2.863 h -9.42 z"/><path style="fill:#bce3f9" id="Fill-26" d="m 42.361,14.055 h 9.42 v -2.862 h -9.42 z"/><path style="fill:#bce3f9" id="Fill-27" d="m 42.361,10.239 h 9.42 V 7.377 h -9.42 z"/><path style="fill:#bce3f9" id="Fill-28" d="m 42.361,6.423 h 9.42 V 3.561 h -9.42 z"/><path style="fill:#bce3f9" id="Fill-29" d="m 42.361,2.863 h 9.42 V 0 h -9.42 z"/></g></g></g><metadata id="metadata36"/></svg>