<svg xmlns="http://www.w3.org/2000/svg" xmlns:xlink="http://www.w3.org/1999/xlink" width="74" height="80" viewBox="0 0 74 80">
  <defs>
    <polygon id="flag-red-a" points="63.574 69.531 63.574 8.575 26.987 8.575 26.987 69.531"/>
  </defs>
  <g fill="none" fill-rule="evenodd" transform="translate(5 5)">
    <path fill="#CE262F" d="M63.5742084,67.8671356 C51.3788164,62.1045932 39.1834244,73.629678 26.9868422,67.8671356 L26.9868422,10.2381525 C39.1822343,16.0006949 51.3776263,4.47561017 63.5742084,10.2381525 L63.5742084,67.8671356"/>
    <path fill="#FFF" d="M43.7854681,36.9628475 C44.2079688,36.8655593 44.6292793,36.7658983 45.0517799,36.6662373 C46.6227682,36.2948814 46.7727262,35.3030169 46.7751065,34.1403051 L46.7751065,27.8770847 C46.7751065,26.5150508 46.6239584,25.6881017 45.0517799,26.0594576 C44.6292793,26.1591186 44.2079688,26.2587797 43.7854681,26.3560678 L43.7854681,36.9628475 Z M43.7854681,43.0742034 L43.7854681,58.1253898 C41.5396689,58.6450508 39.2938696,59.1172542 37.0468803,59.3248814 L37.0468803,21.7479322 C40.2388429,21.4525085 43.4308056,20.6231864 46.6227682,19.881661 C52.3473545,18.5599661 53.5613001,21.4750508 53.5636803,26.0653898 L53.5636803,33.5909831 C53.5648705,38.2596271 51.6915859,41.2281017 46.9774308,42.3255593 C45.9134432,42.5699661 44.8494557,42.8274237 43.7854681,43.0742034 L43.7854681,43.0742034 Z"/>
    <path fill="#992326" d="M37.0832986,59.3578644 C37.0832986,59.3578644 36.5167907,62.5600678 26.9861282,67.8670169 L26.9861282,36.7336271 L37.0832986,59.3578644 Z"/>
    <path fill="#CE262F" d="M37.0496176,59.2926102 C24.699507,53.5300678 12.3505866,65.0551525 0.000476057073,59.2926102 L0.000476057073,1.66362712 C12.3505866,7.42616949 24.699507,-4.09891525 37.0496176,1.66362712 L37.0496176,59.2926102 Z"/>
    <path fill="#FFF" d="M16.9354923,27.2940678 C17.3746549,27.1944068 17.8138176,27.0911864 18.2529802,26.9891525 C19.619264,26.6688136 20.1286451,26.0494915 20.1262648,24.2816949 L20.1262648,19.1811864 C20.1274549,17.5652542 19.8239685,17.1274576 18.4553045,17.4466102 C17.9483037,17.5652542 17.442493,17.6838983 16.9354923,17.7989831 L16.9354923,27.2940678 M16.9354923,49.5671186 C14.689693,50.079661 12.4438938,50.5435593 10.1969044,50.75 L10.1969044,13.1730508 C13.7435296,12.8467797 17.2901548,11.8810169 20.83678,11.0920339 C24.9415821,10.1630508 27.0160007,12.2915254 27.0171909,16.320678 L27.0171909,22.33 C27.0195712,25.4527119 25.2950544,26.9867797 24.0287426,27.7757627 C25.0927302,27.9798305 26.918409,29.0440678 26.9160288,31.8345763 L26.9160288,44.6125424 C26.9160288,46.2284746 27.2171349,46.9094915 27.4730155,47.3461017 L27.4730155,47.5988136 C25.2272163,47.7566102 22.9814171,48.189661 20.7356178,48.6915254 C20.3821455,48.3652542 20.1274549,47.6154237 20.1262648,45.949661 L20.1262648,34.989322 C20.1238845,33.2238983 19.7216163,32.8584746 18.3541423,33.1776271 C17.8816557,33.2879661 17.4079789,33.3983051 16.9354923,33.5062712 L16.9354923,49.5671186"/>
  </g>
</svg>
