<svg width="64px" height="74px" viewBox="0 0 64 74" version="1.1" xmlns="http://www.w3.org/2000/svg" xmlns:xlink="http://www.w3.org/1999/xlink">
    <defs>
        <linearGradient x1="-7.00847477%" y1="0.123710937%" x2="106.885399%" y2="99.7630078%" id="linearGradient-1">
            <stop stop-color="#FFB768" offset="0%"></stop>
            <stop stop-color="#FF9953" offset="19.39%"></stop>
            <stop stop-color="#FF652E" offset="56.55%"></stop>
            <stop stop-color="#FF4518" offset="84.57%"></stop>
            <stop stop-color="#FF390F" offset="100%"></stop>
        </linearGradient>
    </defs>
    <g id="Page-1" stroke="none" stroke-width="1" fill="none" fill-rule="evenodd">
        <g>
            <path d="M29.5310158,0.698167641 L2.54121896,16.6579337 C1.1268623,17.4945809 0.0679006772,19.3481871 0.0679006772,20.9897466 L0.0679006772,52.991501 C0.0679006772,54.6330604 1.1268623,56.4866667 2.54121896,57.3233138 L29.5310158,73.2859649 C30.9612641,74.1312671 33.1037472,74.1312671 34.5325508,73.2859649 L61.5209029,57.3233138 C62.9352596,56.4866667 63.9942212,54.6330604 63.9942212,52.991501 L63.9942212,20.9897466 C63.9942212,19.3481871 62.9352596,17.4945809 61.5209029,16.6579337 L34.5325508,0.698167641 C33.1037472,-0.147134503 30.9598194,-0.147134503 29.5310158,0.698167641 Z" id="XMLID_4_" fill="url(#linearGradient-1)"></path>
            <path d="M36.4366591,27.4333723 C35.2260045,27.4333723 34.2436117,28.3637817 34.2436117,29.5120078 L34.2436117,34.5434308 C34.2436117,35.1795712 33.6541761,35.6945419 32.9274944,35.6945419 C32.2008126,35.6945419 31.611377,35.1795712 31.611377,34.5434308 L31.611377,27.6987914 C31.611377,26.5491228 30.6289842,25.6187135 29.4183296,25.6187135 C28.2062302,25.6187135 27.2252822,26.5491228 27.2252822,27.6987914 L27.2252822,33.1846004 C27.2252822,33.8192982 26.6358465,34.3357115 25.9091648,34.3357115 C25.1839278,34.3357115 24.5944921,33.8192982 24.5944921,33.1846004 L24.5944921,31.1968421 C24.5944921,30.048616 23.6120993,29.1167641 22.4014447,29.1167641 C21.1893454,29.1167641 20.2083973,30.0471735 20.2083973,31.1968421 L20.2083973,35.9037037 C20.2083973,36.5384016 19.6189616,37.0548148 18.8922799,37.0548148 C18.1670429,37.0548148 17.5776072,36.5384016 17.5776072,35.9037037 L17.5776072,35.3569981 C17.5776072,34.1553996 16.5952144,33.1802729 15.3845598,33.1802729 C14.1724605,33.1802729 13.1915124,34.1553996 13.1915124,35.3569981 L13.1915124,41.8900585 C13.1915124,43.0916569 14.1724605,44.0682261 15.3845598,44.0682261 C16.5952144,44.0682261 17.5776072,43.0930994 17.5776072,41.8900585 L17.5776072,41.3433528 C17.5776072,40.708655 18.1670429,40.1922417 18.8922799,40.1922417 C19.6189616,40.1922417 20.2083973,40.708655 20.2083973,41.3433528 L20.2083973,48.8111501 C20.2083973,49.9593762 21.1893454,50.8912281 22.4014447,50.8912281 C23.6120993,50.8912281 24.5944921,49.9593762 24.5944921,48.8111501 L24.5944921,38.6242495 C24.5944921,37.9895517 25.1839278,37.4731384 25.9091648,37.4731384 C26.6358465,37.4731384 27.2252822,37.9895517 27.2252822,38.6242495 L27.2252822,43.7566472 C27.2252822,44.9063158 28.2062302,45.8367251 29.4183296,45.8367251 C30.6289842,45.8367251 31.611377,44.9063158 31.611377,43.7566472 L31.611377,39.9830799 C31.611377,39.3483821 32.2008126,38.8319688 32.9274944,38.8319688 C33.6527314,38.8319688 34.2436117,39.3483821 34.2436117,39.9830799 L34.2436117,44.0162963 C34.2436117,45.1645224 35.2260045,46.0963743 36.4366591,46.0963743 C37.6487585,46.0963743 38.6297065,45.1659649 38.6297065,44.0162963 L38.6297065,29.5120078 C38.6297065,28.3637817 37.6487585,27.4333723 36.4366591,27.4333723" id="XMLID_3_" fill="#FFFFFF"></path>
            <path d="M43.4549887,33.0518908 C42.2443341,33.0518908 41.2619413,33.9823002 41.2619413,35.1319688 L41.2619413,43.4147758 C41.2619413,44.5630019 42.2428894,45.4948538 43.4549887,45.4948538 C44.6656433,45.4948538 45.6480361,44.5644444 45.6480361,43.4147758 L45.6480361,35.1319688 C45.6465914,33.9823002 44.6641986,33.0518908 43.4549887,33.0518908" id="XMLID_2_" fill="#FFFFFF"></path>
            <path d="M50.4718736,37.2639766 C49.261219,37.2639766 48.2788262,38.194386 48.2788262,39.3440546 L48.2788262,41.4053801 C48.2788262,42.5536062 49.261219,43.4854581 50.4718736,43.4854581 C51.6839729,43.4854581 52.664921,42.5550487 52.664921,41.4053801 L52.664921,39.3440546 C52.664921,38.194386 51.6839729,37.2639766 50.4718736,37.2639766" id="XMLID_1_" fill="#FFFFFF"></path>
        </g>
    </g>
</svg>
