<svg xmlns="http://www.w3.org/2000/svg" width="2500" height="1306" viewBox="0 0 46.9 24.5"><style>.st0{fill:#b1e3fa}.st1{fill:#f7bacf}.st2{fill:#e7ee9f}.st3{fill:#feea3a}.st4{fill:#fe9d7f}.st5{fill:#4ec2f6}.st6{fill:#ccdb38}.st7{fill:#fe3f80}.st8{fill:#fe3d02}</style><path id="path59" d="M38.3 13.9v-1h8.6v2h-8.6v-1zm0-3.2v-1h8.6v2h-8.6v-1zm0-3.2v-1h8.6v2h-8.6v-1zm0-3.3v-1h8.6v2.1h-8.6V4.2zm0-3.1V0h8.6v2.2h-8.6V1.1z" class="st0"/><path id="path57" d="M19.1 13.9v-1h8.6v2h-8.6v-1zm0-3.2v-1h8.6v2h-8.6v-1zm0-3.2v-1h8.6v2h-8.6v-1zm0-3.3v-1h8.6v2.1h-8.6V4.2z" class="st1"/><path id="path55" d="M28.7 13.9v-1h8.6v2h-8.6v-1zm0-3.2v-1h8.6v2h-8.6v-1z" class="st2"/><path id="path53" d="M9.6 23.5v-1H18v2H9.6v-1zm0-3.3v-1H18v2H9.6v-1zm0-3.2v-1H18v2H9.6v-1z" class="st3"/><path id="path51" d="M0 13.9v-1h8.4v2H0v-1zm0-3.2v-1h8.4v2H0v-1z" class="st4"/><path id="path49" d="M38.4 23.5v-1h8.4v2h-8.4v-1zm0-3.3v-1h8.4v2h-8.4v-1zm0-3.2v-1h8.4v2h-8.4v-1z" class="st5"/><path id="path47" d="M28.8 23.5v-1h8.4v2h-8.4v-1zm0-3.3v-1h8.4v2h-8.4v-1zm0-3.2v-1h8.4v2h-8.4v-1z" class="st6"/><path id="path45" d="M19.2 23.5v-1h8.4v2h-8.4v-1zm0-3.3v-1h8.4v2h-8.4v-1zm0-3.2v-1h8.4v2h-8.4v-1z" class="st7"/><path id="path43" d="M0 23.5v-1h8.4v2H0v-1zm0-3.3v-1h8.4v2H0v-1zM0 17v-1h8.4v2H0v-1z" class="st8"/></svg>